#!OML:ASF H:\BreakDance\Project 1\Capture day 1\Session 1\Male.ASF
:FULLY-SPECIFIED
:DEGREES
613
root -1.48309 17.8508 1.32694 -59.7834 -79.851 243.745
lowerback -2.62182 -2.45475 -4.70761
upperback -6.63158 -3.26513 -4.49382
thorax -5.42923 -1.41017 -1.991
lowerneck -15.2707 -0.0649705 -2.1567
upperneck -25.3785 -0.0576547 0.28853
head -5.36648 -0.44136 0.515818
rclavicle -7.31528e-014 -1.43125e-014
rhumerus 93.8369 -42.4746 -58.4078
rradius 33.9476
rwrist -7.7362
rhand -54.9349 -58.0725
rfingers 7.12502
rthumb -27.3179 633.887
lclavicle -7.31528e-014 -1.43125e-014
lhumerus 85.4034 37.2317 42.1523
lradius 38.4335
lwrist 14.6503
lhand -55.6996 91.5932
lfingers 7.12502
lthumb -28.0491 -63.6698
rfemur -41.8785 9.69517 0.93758
rtibia 27.7465
rfoot 11.5701 0.110832
rtoes 14.5346
lfemur 52.3606 0.139704 -7.82748
ltibia 4.40682
lfoot 37.9296 1.75264
ltoes -34.0774
614
root -1.48946 17.7177 1.31203 -60.1197 -79.7741 244.323
lowerback -2.94165 -2.54693 -5.02706
upperback -6.63473 -3.35174 -4.45601
thorax -5.23191 -1.43502 -1.78635
lowerneck -15.402 -0.0957616 -2.18347
upperneck -25.1177 -0.105344 0.239415
head -5.26223 -0.452107 0.501839
rclavicle 1.06996e-013 3.22031e-014
rhumerus 92.3603 -42.5166 -57.8261
rradius 35.8885
rwrist -8.75591
rhand -55.2931 -58.1773
rfingers 7.12502
rthumb -27.6605 633.836
lclavicle 1.06996e-013 3.22031e-014
lhumerus 84.4025 37.4433 41.4966
lradius 39.5072
lwrist 14.7498
lhand -55.6311 91.5402
lfingers 7.12502
lthumb -27.9836 -63.6062
rfemur -42.1944 9.31702 0.570085
rtibia 26.4339
rfoot 13.4259 -0.249158
rtoes 14.4157
lfemur 53.3059 0.0720364 -7.29241
ltibia 5.38226
lfoot 38.5907 1.86748
ltoes -34.3925
615
root -1.49538 17.5907 1.30166 -61.2829 -79.6416 245.661
lowerback -3.20338 -2.60182 -5.37389
upperback -6.63685 -3.39553 -4.45144
thorax -5.06751 -1.43965 -1.60045
lowerneck -15.6116 -0.119519 -2.15517
upperneck -24.809 -0.174031 0.0623183
head -5.13189 -0.472888 0.436833
rclavicle 5.12367e-014 8.74653e-015
rhumerus 90.3653 -42.7727 -56.2858
rradius 37.6038
rwrist -10.1263
rhand -55.576 -59.278
rfingers 7.12502
rthumb -27.931 632.779
lclavicle 5.12367e-014 8.74653e-015
lhumerus 83.3938 37.6362 40.9025
lradius 40.551
lwrist 14.8529
lhand -55.5313 91.5964
lfingers 7.12502
lthumb -27.8882 -63.6469
rfemur -42.4441 8.53879 0.437254
rtibia 25.2615
rfoot 15.5195 -0.257996
rtoes 14.3915
lfemur 53.9807 0.0688277 -6.86126
ltibia 7.05895
lfoot 38.9745 1.86034
ltoes -34.6891
616
root -1.50018 17.4707 1.29472 -62.8753 -79.4126 247.368
lowerback -3.41303 -2.62967 -5.71421
upperback -6.64559 -3.40996 -4.51173
thorax -4.94507 -1.43222 -1.48441
lowerneck -15.8146 -0.130882 -2.04532
upperneck -24.5153 -0.257306 -0.235061
head -5.00804 -0.504034 0.319602
rclavicle -1.0138e-014 9.93923e-015
rhumerus 88.0709 -43.1696 -53.9663
rradius 38.8061
rwrist -11.7038
rhand -55.7493 -61.3065
rfingers 7.12502
rthumb -28.0966 630.778
lclavicle -1.0138e-014 9.93923e-015
lhumerus 82.425 37.7538 40.4118
lradius 41.5676
lwrist 14.9471
lhand -55.3738 91.552
lfingers 7.12502
lthumb -27.7376 -63.5781
rfemur -42.634 7.55315 0.405094
rtibia 24.2481
rfoot 17.6075 -0.148818
rtoes 14.4805
lfemur 54.469 0.0767193 -6.54595
ltibia 9.19539
lfoot 39.3082 1.54367
ltoes -34.7804
617
root -1.5049 17.359 1.28943 -64.3163 -79.0813 248.882
lowerback -3.58673 -2.6615 -6.03087
upperback -6.6574 -3.43196 -4.62901
thorax -4.85153 -1.43044 -1.43974
lowerneck -15.9709 -0.118006 -1.87026
upperneck -24.2863 -0.326081 -0.604924
head -4.91231 -0.531925 0.168931
rclavicle -1.91281e-013 -2.98177e-014
rhumerus 85.5851 -43.5753 -51.2217
rradius 39.7112
rwrist -13.3376
rhand -55.8117 -63.8782
rfingers 7.12502
rthumb -28.1563 451.784
lclavicle -1.91281e-013 -2.98177e-014
lhumerus 81.5164 37.8054 40.0152
lradius 42.5502
lwrist 15.0174
lhand -55.1701 91.3166
lfingers 7.12502
lthumb -27.5428 -63.3115
rfemur -42.779 6.5655 0.343117
rtibia 23.3928
rfoot 19.4528 -0.145472
rtoes 14.5744
lfemur 54.8089 0.0209859 -6.30784
ltibia 11.5938
lfoot 39.7102 0.939363
ltoes -34.6626
618
root -1.51017 17.2556 1.28358 -65.1774 -78.6878 249.8
lowerback -3.73328 -2.72917 -6.33058
upperback -6.69103 -3.50081 -4.75866
thorax -4.79748 -1.45024 -1.41667
lowerneck -16.0024 -0.0743925 -1.66372
upperneck -24.1715 -0.354764 -0.976424
head -4.8711 -0.542784 0.0137851
rclavicle 7.55879e-014 -3.97569e-015
rhumerus 83.2187 -43.7933 -48.6714
rradius 40.5484
rwrist -14.7536
rhand -55.8128 -66.3566
rfingers 7.12502
rthumb -28.1573 454.262
lclavicle 7.55879e-014 -3.97569e-015
lhumerus 80.6035 37.8135 39.625
lradius 43.4909
lwrist 15.0821
lhand -54.961 90.9412
lfingers 7.12502
lthumb -27.3428 -62.9044
rfemur -42.8804 5.75029 0.175316
rtibia 22.6492
rfoot 20.8951 -0.400748
rtoes 14.5031
lfemur 54.9279 -0.630521 -6.78858
ltibia 14.2577
lfoot 39.9435 0.819031
ltoes -34.4979
619
root -1.51617 17.1599 1.27616 -65.4022 -78.299 250.089
lowerback -3.86861 -2.84136 -6.617
upperback -6.76988 -3.62681 -4.85547
thorax -4.79485 -1.49407 -1.36683
lowerneck -15.8321 -0.00211274 -1.44211
upperneck -24.2045 -0.336971 -1.29903
head -4.90544 -0.532673 -0.126791
rclavicle -1.13307e-013 -4.77083e-014
rhumerus 81.0816 -43.7606 -46.5435
rradius 41.4262
rwrist -15.9369
rhand -55.8446 -68.3799
rfingers 7.12502
rthumb -28.1877 456.28
lclavicle -1.13307e-013 -4.77083e-014
lhumerus 79.6105 37.7812 39.1661
lradius 44.3943
lwrist 15.1557
lhand -54.8083 90.6274
lfingers 7.12502
lthumb -27.1968 -62.5677
rfemur -42.9455 5.21742 -0.106555
rtibia 21.9658
rfoot 21.8941 -0.909656
rtoes 14.0972
lfemur 54.8805 -1.38475 -7.25977
ltibia 17.0277
lfoot 40.3945 0.447198
ltoes -34.2462
620
root -1.52221 17.0706 1.26756 -65.2292 -77.9761 249.994
lowerback -4.03049 -2.98081 -6.86776
upperback -6.85359 -3.78224 -4.90409
thorax -4.77931 -1.55182 -1.28845
lowerneck -15.6395 0.0908405 -1.19537
upperneck -24.3215 -0.282724 -1.56049
head -4.96963 -0.511423 -0.251529
rclavicle -1.36615e-013 -4.81059e-014
rhumerus 79.3651 -43.5518 -44.9968
rradius 42.3141
rwrist -16.8707
rhand -55.9617 -69.8615
rfingers 7.12502
rthumb -28.2996 457.744
lclavicle -1.36615e-013 -4.81059e-014
lhumerus 78.594 37.7563 38.6751
lradius 45.2647
lwrist 15.2175
lhand -54.7617 90.6031
lfingers 7.12502
lthumb -27.1522 -62.5364
rfemur -42.9694 4.98357 -0.443826
rtibia 21.2946
rfoot 22.5054 -1.44604
rtoes 12.7513
lfemur 54.714 -2.14513 -7.65185
ltibia 19.8158
lfoot 41.0408 -0.229526
ltoes -34.3508
621
root -1.52907 16.9892 1.2594 -64.9868 -77.7453 249.836
lowerback -4.21713 -3.11333 -7.05851
upperback -6.96215 -3.92728 -4.92062
thorax -4.77669 -1.60573 -1.21114
lowerneck -15.3802 0.191866 -0.908497
upperneck -24.4938 -0.215713 -1.78046
head -5.06064 -0.489856 -0.369716
rclavicle -1.0148e-013 -1.31198e-014
rhumerus 77.9927 -43.2029 -43.9367
rradius 43.1715
rwrist -17.5444
rhand -56.1411 -70.9013
rfingers 7.12502
rthumb -28.471 458.755
lclavicle -1.0148e-013 -1.31198e-014
lhumerus 77.5401 37.6845 38.1348
lradius 46.1034
lwrist 15.2797
lhand -54.806 90.8986
lfingers 7.12502
lthumb -27.1946 -62.8385
rfemur -42.9589 4.99912 -0.771753
rtibia 20.623
rfoot 22.8704 -2.03868
rtoes 10.8348
lfemur 54.5094 -2.85659 -7.98965
ltibia 22.5217
lfoot 41.8147 -0.723506
ltoes -34.1279
622
root -1.53626 16.9162 1.25259 -64.9763 -77.5933 249.907
lowerback -4.44139 -3.21571 -7.20426
upperback -7.08451 -4.03155 -4.92122
thorax -4.76969 -1.64213 -1.14377
lowerneck -15.0573 0.282492 -0.597061
upperneck -24.7038 -0.163122 -1.97513
head -5.17287 -0.479484 -0.484203
rclavicle 1.09232e-013 -5.96354e-016
rhumerus 76.9071 -42.7617 -43.2496
rradius 43.9486
rwrist -17.9772
rhand -56.3411 -71.6682
rfingers 7.12502
rthumb -28.6622 459.49
lclavicle 1.09232e-013 -5.96354e-016
lhumerus 76.4784 37.5573 37.5792
lradius 46.9022
lwrist 15.3312
lhand -54.8807 91.3732
lfingers 7.12502
lthumb -27.2661 -63.3243
rfemur -42.9137 5.14499 -1.01808
rtibia 19.9683
rfoot 23.087 -2.56784
rtoes 8.60474
lfemur 54.2885 -3.47681 -8.32904
ltibia 25.1463
lfoot 42.5577 -0.787406
ltoes -33.161
623
root -1.54361 16.8526 1.24717 -65.4235 -77.4882 250.426
lowerback -4.72219 -3.28164 -7.36602
upperback -7.16788 -4.08068 -4.89807
thorax -4.68786 -1.65434 -1.04578
lowerneck -14.886 0.354099 -0.331553
upperneck -24.8612 -0.128061 -2.1424
head -5.24697 -0.478766 -0.58258
rclavicle 1.28465e-013 2.38542e-015
rhumerus 76.1577 -42.304 -42.8833
rradius 44.6135
rwrist -18.2037
rhand -56.5283 -72.2698
rfingers 7.12502
rthumb -28.841 460.061
lclavicle 1.28465e-013 2.38542e-015
lhumerus 75.4907 37.454 37.0988
lradius 47.6385
lwrist 15.3458
lhand -54.9168 91.7966
lfingers 7.12502
lthumb -27.3006 -63.7532
rfemur -42.8421 5.25026 -1.0941
rtibia 19.3738
rfoot 23.2649 -3.11504
rtoes 6.85552
lfemur 54.0657 -3.96101 -8.71584
ltibia 27.6887
lfoot 43.0789 -0.450942
ltoes -31.5872
624
root -1.54935 16.7968 1.24265 -66.358 -77.4075 251.433
lowerback -5.06088 -3.30375 -7.55849
upperback -7.27266 -4.06929 -4.86705
thorax -4.59652 -1.63655 -0.924659
lowerneck -14.6353 0.406522 -0.0912179
upperneck -25.024 -0.117747 -2.30766
head -5.3345 -0.486712 -0.676251
rclavicle -4.99943e-014 4.96962e-015
rhumerus 75.5235 -41.788 -42.6223
rradius 45.1733
rwrist -18.296
rhand -56.6771 -72.7732
rfingers 7.12502
rthumb -28.9831 460.54
lclavicle -4.99943e-014 4.96962e-015
lhumerus 74.5063 37.285 36.6106
lradius 48.2898
lwrist 15.3701
lhand -54.8689 91.9657
lfingers 7.12502
lthumb -27.2547 -63.915
rfemur -42.7399 5.13992 -0.898314
rtibia 18.877
rfoot 23.4139 -3.64692
rtoes 5.91381
lfemur 53.7642 -4.25549 -9.12902
ltibia 30.2444
lfoot 43.2886 -0.276937
ltoes -30.1792
625
root -1.55333 16.7478 1.23914 -67.5907 -77.3633 252.752
lowerback -5.48273 -3.29 -7.73604
upperback -7.36538 -4.00248 -4.83681
thorax -4.44939 -1.59567 -0.815311
lowerneck -14.4171 0.450874 0.145995
upperneck -25.175 -0.121188 -2.48687
head -5.4139 -0.501371 -0.774085
rclavicle -5.40197e-014 -6.55989e-014
rhumerus 74.9962 -41.2869 -42.4575
rradius 45.6639
rwrist -18.2928
rhand -56.779 -73.247
rfingers 7.12502
rthumb -29.0804 460.997
lclavicle -5.40197e-014 -6.55989e-014
lhumerus 73.5964 37.0998 36.1099
lradius 48.8383
lwrist 15.4217
lhand -54.7553 91.8498
lfingers 7.12502
lthumb -27.1461 -63.7821
rfemur -42.6002 4.68355 -0.33225
rtibia 18.4979
rfoot 23.5779 -4.1298
rtoes 5.95439
lfemur 53.3033 -4.36506 -9.49766
ltibia 32.9001
lfoot 43.2558 -0.433746
ltoes -29.2807
626
root -1.55624 16.705 1.23664 -68.8588 -77.4026 254.125
lowerback -5.97916 -3.25342 -7.825
upperback -7.44426 -3.89907 -4.79428
thorax -4.25204 -1.54367 -0.743443
lowerneck -14.2302 0.49378 0.389488
upperneck -25.3337 -0.131261 -2.68735
head -5.49153 -0.519926 -0.880039
rclavicle 1.81093e-013 2.34566e-014
rhumerus 74.5206 -40.8233 -42.3301
rradius 46.1244
rwrist -18.254
rhand -56.8225 -73.7413
rfingers 7.12502
rthumb -29.122 461.484
lclavicle 1.81093e-013 2.34566e-014
lhumerus 72.7568 36.914 35.5718
lradius 49.2893
lwrist 15.5133
lhand -54.6315 91.6285
lfingers 7.12502
lthumb -27.0276 -63.5424
rfemur -42.4038 3.8382 0.675273
rtibia 18.2323
rfoot 23.8143 -4.44933
rtoes 6.60265
lfemur 52.6269 -4.30882 -9.69808
ltibia 35.6983
lfoot 42.9774 -0.925714
ltoes -29.0618
